# xmcd
#
# Track frame offsets:
#	150
#	18505
#	29700
#	45322
#	58524
#	74445
#	94239
#	108061
#	125570
#	140585
#	161268
#
# Disc length: 2607 seconds
#
# Revision: 1
# Processed by: cddbd v1.5.2PL0 Copyright (c) Steve Scherf et al.
# Submitted via: audiograbber 1.83.01
#
DISCID=920a2d0b
DTITLE=Loonataraxis - Up here
DYEAR=2011
DGENRE=Crossover
TTITLE0=Quicksand
TTITLE1=The brain
TTITLE2=Emodesign
TTITLE3=I don't belive
TTITLE4=Woohaa!
TTITLE5=Go down
TTITLE6=Two face
TTITLE7=Mayday
TTITLE8=Earfuck
TTITLE9=A single second
TTITLE10=Up here
EXTD=
EXTT0=
EXTT1=
EXTT2=
EXTT3=
EXTT4=
EXTT5=
EXTT6=
EXTT7=
EXTT8=
EXTT9=
EXTT10=
PLAYORDER=
